<svg class="icon" viewBox="0 0 1024 1024" version="1.1" xmlns="http://www.w3.org/2000/svg" p-id="7087"
     width="128" height="128">
  <path
    d="M864.9 507.7V140c0-6.6-5.4-12-12-12H302c-6.6 0-12 5.4-12 12v108.7c0 3.3-2.7 6-6 6H173c-6.6 0-12 5.4-12 12v241c0 3.3-2.7 6-6 6h-45c-6.6 0-12 5.4-12 12v421.4c0 6.6 5.4 12 12 12h806c6.6 0 12-5.4 12-12V525.7c0-6.6-5.4-12-12-12h-45c-3.4 0-6.1-2.7-6.1-6zM360 192h435c3.3 0 6 2.7 6 6v308c0 3.3-2.7 6-6 6H360c-3.3 0-6-2.7-6-6V198c0-3.3 2.7-6 6-6zM231 318.6h49.1c3.3 0 6 2.7 6 6V506c0 3.3-2.7 6-6 6H231c-3.3 0-6-2.7-6-6V324.6c0-3.3 2.7-6 6-6z m627 576.5H168c-3.3 0-6-2.7-6-6V583.7c0-3.3 2.7-6 6-6h690c3.3 0 6 2.7 6 6v305.4c0 3.3-2.7 6-6 6z"
  ></path>
  <path
    d="M325.2 767.8h372.5c3.3 0 6 2.7 6 6v51.9c0 3.3 2.7 6 6 6h52c3.3 0 6-2.7 6-6V646c0-3.3-2.7-6-6-6h-52c-3.3 0-6 2.7-6 6v53c0 3.3-2.7 6-6 6H325.2c-3.3 0-6-2.7-6-6v-53c0-3.3-2.7-6-6-6h-52c-3.3 0-6 2.7-6 6v179.8c0 3.3 2.7 6 6 6h52c3.3 0 6-2.7 6-6v-51.9c0-3.4 2.7-6.1 6-6.1zM475.1 256h-52c-3.3 0-6 2.7-6 6v52c0 3.3 2.7 6 6 6h52c3.3 0 6-2.7 6-6v-52c0-3.3-2.7-6-6-6zM423.1 447.8h52c3.3 0 6-2.7 6-6v-52c0-3.3-2.7-6-6-6h-52c-3.3 0-6 2.7-6 6v52c0 3.3 2.7 6 6 6zM551.1 320h180c3.3 0 6-2.7 6-6v-52c0-3.3-2.7-6-6-6h-180c-3.3 0-6 2.7-6 6v52c0 3.3 2.7 6 6 6zM551.1 447.8h180c3.3 0 6-2.7 6-6v-52c0-3.3-2.7-6-6-6h-180c-3.3 0-6 2.7-6 6v52c0 3.3 2.7 6 6 6z"
  ></path>
</svg>
