<svg t="1677577740280" class="icon" viewBox="0 0 1024 1024" version="1.1" xmlns="http://www.w3.org/2000/svg"
     p-id="12161" width="128" height="128">
  <path
    d="M994.8 208.8H874.6c-15.7 0-28.4-12.8-28.3-28.5l0.7-108c0.1-15.7-12.6-28.5-28.3-28.5H628.3c-15.6 0-28.2 12.6-28.3 28.2l-0.7 108.7c-0.1 15.6-12.8 28.2-28.3 28.2H451.2c-15.7 0-28.4-12.8-28.3-28.5l0.7-108c0.1-15.7-12.6-28.5-28.3-28.5H204.9c-15.6 0-28.2 12.6-28.3 28.2l-0.7 108.7c-0.1 15.6-12.8 28.2-28.3 28.2H28.3C12.7 208.8 0 221.5 0 237.2l0.9 715.2c0 15.6 12.7 28.3 28.3 28.3h966.4c15.7 0 28.4-12.7 28.3-28.4l-0.9-715.2c0.1-15.6-12.6-28.3-28.2-28.3z m-701.5-94.4h13.9c15.6 0 28.3 12.7 28.3 28.3v103.2c0 15.6-12.7 28.3-28.3 28.3h-13.9c-15.6 0-28.3-12.7-28.3-28.3V142.7c-0.1-15.6 12.6-28.3 28.3-28.3z m-49.2 765.5H141.5c-15.6 0-28.3-12.7-28.3-28.3v-83.9c0-15.6 12.7-28.3 28.3-28.3h102.6c15.6 0 28.3 12.7 28.3 28.3v83.9c0.1 15.6-12.6 28.3-28.3 28.3z m0-189.4H141.5c-15.6 0-28.3-12.7-28.3-28.3v-83.9c0-15.6 12.7-28.3 28.3-28.3h102.6c15.6 0 28.3 12.7 28.3 28.3v83.9c0.1 15.6-12.6 28.3-28.3 28.3z m0-189.3H141.5c-15.6 0-28.3-12.7-28.3-28.3V389c0-15.6 12.7-28.3 28.3-28.3h102.6c15.6 0 28.3 12.7 28.3 28.3v83.9c0.1 15.6-12.6 28.3-28.3 28.3zM461 879.9H344.4c-15.6 0-28.3-12.7-28.3-28.3v-83.9c0-15.6 12.7-28.3 28.3-28.3H461c15.6 0 28.3 12.7 28.3 28.3v83.9c0.1 15.6-12.6 28.3-28.3 28.3z m0-189.4H344.4c-15.6 0-28.3-12.7-28.3-28.3v-83.9c0-15.6 12.7-28.3 28.3-28.3H461c15.6 0 28.3 12.7 28.3 28.3v83.9c0.1 15.6-12.6 28.3-28.3 28.3z m0-189.3H344.4c-15.6 0-28.3-12.7-28.3-28.3V389c0-15.6 12.7-28.3 28.3-28.3H461c15.6 0 28.3 12.7 28.3 28.3v83.9c0.1 15.6-12.6 28.3-28.3 28.3z m221.5 378.7H565.8c-15.6 0-28.3-12.7-28.3-28.3v-83.9c0-15.6 12.7-28.3 28.3-28.3h116.7c15.6 0 28.3 12.7 28.3 28.3v83.9c0 15.6-12.7 28.3-28.3 28.3z m0-189.4H565.8c-15.6 0-28.3-12.7-28.3-28.3v-83.9c0-15.6 12.7-28.3 28.3-28.3h116.7c15.6 0 28.3 12.7 28.3 28.3v83.9c0 15.6-12.7 28.3-28.3 28.3z m0-189.3H565.8c-15.6 0-28.3-12.7-28.3-28.3V389c0-15.6 12.7-28.3 28.3-28.3h116.7c15.6 0 28.3 12.7 28.3 28.3v83.9c0 15.6-12.7 28.3-28.3 28.3z m48-226.9h-13.9c-15.6 0-28.3-12.7-28.3-28.3V142.7c0-15.6 12.7-28.3 28.3-28.3h13.9c15.6 0 28.3 12.7 28.3 28.3v103.2c0.1 15.7-12.6 28.4-28.3 28.4z m159.4 605.6H787.3c-15.6 0-28.3-12.7-28.3-28.3v-83.9c0-15.6 12.7-28.3 28.3-28.3h102.6c15.6 0 28.3 12.7 28.3 28.3v83.9c0 15.6-12.7 28.3-28.3 28.3z m0-189.4H787.3c-15.6 0-28.3-12.7-28.3-28.3v-83.9c0-15.6 12.7-28.3 28.3-28.3h102.6c15.6 0 28.3 12.7 28.3 28.3v83.9c0 15.6-12.7 28.3-28.3 28.3z m0-189.3H787.3c-15.6 0-28.3-12.7-28.3-28.3V389c0-15.6 12.7-28.3 28.3-28.3h102.6c15.6 0 28.3 12.7 28.3 28.3v83.9c0 15.6-12.7 28.3-28.3 28.3z"
     p-id="12162"></path>
</svg>
